<mxfile host="app.diagrams.net" modified="2023-07-06T18:41:47.312Z" agent="Mozilla/5.0 (X11; Linux x86_64; rv:109.0) Gecko/20100101 Firefox/115.0" etag="_rGhxCL9sq2gQtoPJm1F" version="21.6.1" type="github">
  <diagram name="Pagina-1" id="BvZLiWGvvXwm4nVtBzlj">
    <mxGraphModel dx="880" dy="485" grid="1" gridSize="10" guides="1" tooltips="1" connect="1" arrows="1" fold="1" page="1" pageScale="1" pageWidth="827" pageHeight="1169" math="0" shadow="0">
      <root>
        <mxCell id="0" />
        <mxCell id="1" parent="0" />
      </root>
    </mxGraphModel>
  </diagram>
</mxfile>
